<svg width="17" height="16" viewBox="0 0 17 16" fill="none" xmlns="http://www.w3.org/2000/svg">
<path d="M13.8408 4.12936C14.724 4.72471 15.5949 5.35051 16.5079 5.91078C17.0155 6.2223 17.0694 6.50566 16.7568 6.98793C16.481 7.41252 16.3461 7.63404 15.7737 7.2413C13.9841 6.01969 12.1865 4.80824 10.4371 3.5331C9.50941 2.85745 8.56802 2.73931 7.60202 3.37757C5.74856 4.60241 3.90929 5.84709 2.06717 7.08577C1.73225 7.31053 1.34717 7.46467 1.07374 7.77434C0.890192 7.98063 0.805041 7.90125 0.662175 7.68665C-0.20637 6.38336 -0.213466 6.39167 1.08273 5.51296C1.78381 5.03807 2.47685 4.55164 3.19874 4.05322C3.1117 3.97522 3.05351 3.88892 2.97309 3.85754C2.54308 3.69001 2.33824 3.44726 2.34013 2.93914C2.34203 2.43102 2.55632 2.20073 2.96647 1.98659C6.10099 0.366243 9.33202 0.204254 12.651 1.35802C13.0522 1.49647 13.4344 1.688 13.8223 1.86106C14.4023 2.12274 14.6308 2.5284 14.5977 3.18882C14.5703 3.74078 14.0139 3.73801 13.8408 4.12936Z" fill="black"/>
<path d="M11.3605 9.55811C11.4078 10.902 12.0077 11.8403 13.2414 12.3442C13.4576 12.4324 13.4482 12.5164 13.3531 12.6742C12.853 13.5003 12.3469 14.3227 11.8648 15.1585C11.7446 15.3666 11.5937 15.3892 11.388 15.3892C9.47489 15.3855 7.56182 15.3892 5.64875 15.3855C5.3791 15.3855 4.69269 14.6222 4.71539 14.3605C4.72296 14.2738 4.78635 14.2401 4.86299 14.2101C6.55892 13.5437 7.79031 12.2385 9.21518 11.1974C9.92477 10.6768 10.6178 10.1285 11.3605 9.55811Z" fill="black"/>
<path d="M7.51866 11.4779C7.82284 9.29449 6.80575 7.33032 4.09131 6.74606C4.53315 6.44054 4.93336 6.15948 5.33783 5.88535C5.75082 5.60567 6.169 5.33154 6.64538 5.01587C6.70735 5.77412 6.95003 6.40823 7.55461 6.85682C7.98746 7.17987 8.49033 7.33955 9.02111 7.30263C10.0543 7.2311 10.9876 6.60714 11.1901 5.1054L13.7446 6.86328C12.2285 7.2934 11.4739 8.58008 10.3022 9.33787C9.35083 9.95075 8.50216 10.7122 7.51866 11.4779Z" fill="black"/>
<path d="M14.3101 7.65698C14.8686 7.6566 15.4045 7.87168 15.801 8.25529C16.1975 8.6389 16.4224 9.15992 16.4266 9.70469C16.4304 10.7758 15.4517 11.7445 14.3513 11.7579C13.1999 11.7727 12.2273 10.8446 12.2164 9.72222C12.2143 9.45234 12.2668 9.1847 12.371 8.93467C12.4752 8.68465 12.6289 8.45716 12.8235 8.26527C13.018 8.07338 13.2495 7.92086 13.5046 7.81647C13.7598 7.71209 14.0335 7.65789 14.3101 7.65698Z" fill="black"/>
<path d="M7.51906 5.11548C7.52155 4.76047 7.66754 4.42077 7.9253 4.17017C8.18306 3.91957 8.53177 3.77832 8.89568 3.77711C9.689 3.77388 10.3243 4.38122 10.3177 5.13717C10.3111 5.88389 9.64359 6.51108 8.87439 6.49261C8.12647 6.47277 7.51528 5.85251 7.51906 5.11548Z" fill="#010101"/>
<path d="M6.72836 10.4967C6.61719 8.77111 5.21456 7.47796 3.57113 7.58919C1.8208 7.70826 0.518454 9.10939 0.615433 10.7736C0.710045 12.3745 2.23662 13.7152 3.82517 13.5888C5.53908 13.4535 6.83007 12.0787 6.72836 10.4967ZM3.82281 12.4479C2.74611 12.4678 1.84303 11.5711 1.85013 10.4953C1.85675 9.50121 2.72482 8.68526 3.77597 8.68526C4.03307 8.68467 4.28768 8.73445 4.5247 8.83163C4.76172 8.92882 4.97632 9.07144 5.15579 9.25105C5.33526 9.43065 5.47594 9.64357 5.56949 9.8772C5.66304 10.1108 5.70755 10.3604 5.7004 10.6111C5.68384 11.5498 4.7836 12.4304 3.82281 12.4479Z" fill="black"/>
<path d="M4.83711 10.5304C4.84092 10.669 4.81634 10.807 4.76482 10.9362C4.71331 11.0654 4.63589 11.1833 4.53709 11.283C4.4383 11.3827 4.32011 11.4621 4.18946 11.5167C4.0588 11.5713 3.9183 11.5999 3.77618 11.6008C3.63406 11.6018 3.49317 11.5751 3.36176 11.5223C3.23035 11.4694 3.11106 11.3916 3.01087 11.2932C2.91068 11.1949 2.83161 11.078 2.77828 10.9495C2.72495 10.821 2.69843 10.6834 2.70029 10.5447C2.70312 10.0099 3.18092 9.52943 3.73251 9.50405C4.29357 9.47959 4.82482 9.97248 4.83711 10.5304Z" fill="#010101"/>
</svg>
