<svg width="23" height="9" viewBox="0 0 23 9" fill="none" xmlns="http://www.w3.org/2000/svg">
<path d="M22.2485 6.22073C22.2485 6.22073 22.3019 5.66693 22.2083 5.49755C22.1146 5.32818 21.2669 4.11626 20.6391 3.88828C20.6391 3.88828 19.7171 3.64691 18.8755 3.50385C18.034 3.36078 16.3513 3.30817 16.3513 3.30817C16.3513 3.30817 13.7333 1.28862 12.1571 1.08002C10.5808 0.871415 4.14291 1.08002 4.14291 1.08002C4.14291 1.08002 2.36182 1.38415 2.14847 1.41876C1.93512 1.45337 2.47961 1.90519 2.47961 1.90519L0.992774 3.38201C0.883045 4.00699 0.829386 4.64011 0.832406 5.27418C0.832406 6.36888 0.737793 6.98176 0.737793 6.98176L2.2989 7.22912L2.32256 7.23143C2.31735 7.16821 2.31357 7.10406 2.31357 7.03945C2.31363 6.7217 2.3834 6.40764 2.51821 6.11839C2.65301 5.82914 2.84972 5.57139 3.09512 5.36246C3.34052 5.15354 3.62891 4.99828 3.94092 4.90712C4.25294 4.81596 4.58133 4.79101 4.90405 4.83396C5.22677 4.8769 5.53632 4.98674 5.81191 5.15609C6.0875 5.32544 6.32273 5.55038 6.50181 5.81579C6.68088 6.0812 6.79965 6.38093 6.85012 6.69484C6.90059 7.00875 6.8816 7.32956 6.79443 7.63571L7.05367 7.65925L16.0698 7.75155H16.0816C15.9837 7.44544 15.9547 7.12232 15.9967 6.80428C16.0386 6.48624 16.1505 6.18079 16.3246 5.90883C16.4988 5.63687 16.7311 5.40483 17.0057 5.22857C17.2803 5.05231 17.5906 4.93599 17.9156 4.88758C18.2405 4.83917 18.5723 4.85981 18.8883 4.94808C19.2043 5.03635 19.497 5.19017 19.7464 5.39902C19.9958 5.60788 20.1961 5.86682 20.3334 6.15815C20.4707 6.44948 20.5419 6.76632 20.5421 7.08698C20.5421 7.28589 20.4111 8.05614 20.4111 8.05614C20.4111 8.05614 20.8118 8.06907 20.8652 8.05614C20.9187 8.04322 20.9386 7.68463 20.9386 7.68463C20.9386 7.68463 22.0205 7.67171 22.1808 6.93561C22.1808 6.93561 21.9334 6.70762 22.0337 6.46625C22.134 6.22489 22.2485 6.22073 22.2485 6.22073ZM2.20145 3.94228C1.97911 4.12688 1.41806 4.38117 1.37359 4.32902C1.32912 4.27687 1.42705 3.556 1.42705 3.556H2.53118C2.44491 3.70234 2.33336 3.83302 2.20145 3.94228ZM5.19973 1.65228C4.9632 1.98826 4.06438 2.93481 3.82217 3.02619C3.54637 3.13003 1.8722 3.08664 1.8353 3.02619C1.7984 2.96573 3.09081 1.61859 3.09081 1.61859L5.14296 1.5526C5.1551 1.55206 5.16714 1.55484 5.17775 1.56061C5.18835 1.56639 5.19709 1.57493 5.20299 1.58529C5.20889 1.59565 5.21171 1.6074 5.21113 1.61924C5.21056 1.63107 5.20661 1.64252 5.19973 1.65228ZM6.00157 3.08895C5.69408 2.93481 5.7745 2.8522 5.74754 2.61775C5.72057 2.38331 6.45713 1.5526 6.45713 1.5526C6.45713 1.5526 9.39533 1.44507 9.489 1.5526C9.58267 1.66013 9.70283 3.25602 9.70283 3.25602C9.70283 3.25602 6.3067 3.2431 6.00157 3.08895ZM14.4032 3.60815C14.3365 3.6603 10.516 3.37324 10.516 3.37324L10.1021 1.5526C10.1021 1.5526 10.2222 1.58813 11.2507 1.5526C12.2791 1.51706 13.1742 1.94026 13.7754 2.19871C14.3767 2.45715 14.2693 2.79866 14.1624 2.81113C14.0555 2.82359 13.8554 3.0068 13.9088 3.25417C13.9623 3.50154 14.4694 3.556 14.4013 3.60815H14.4032ZM20.6949 4.96313C20.553 4.93082 20.4882 4.76145 20.3278 4.62438C20.1675 4.48732 19.8548 4.55285 19.6802 4.52562C19.5057 4.49839 18.832 4.03135 18.832 4.03135C18.832 4.03135 19.473 4.0835 19.8728 4.13565C20.2725 4.1878 20.1798 4.13565 20.5407 4.23995C20.9017 4.34425 21.3686 4.96313 21.3686 4.96313C21.3686 4.96313 20.8326 4.9959 20.6921 4.96313H20.6949Z" fill="#03060D"/>
</svg>
