<svg width="15" height="16" viewBox="0 0 15 16" fill="none" xmlns="http://www.w3.org/2000/svg">
<path d="M0.465745 13.3253C0.340856 12.5837 0.418438 11.8485 0.513051 11.1133C0.577861 10.608 0.886299 10.3384 1.42133 10.3394C1.51878 10.3394 1.61624 10.3394 1.71369 10.3394C3.00468 10.2965 3.49288 10.2761 3.48815 11.9279C3.48815 12.2048 3.55532 12.3506 3.88221 12.3252C4.23086 12.2985 4.58376 12.3211 4.93478 12.3183C5.06724 12.3183 5.19638 12.3322 5.31323 12.226C6.53515 11.1304 8.43924 11.1115 9.66542 12.1766C9.80734 12.2999 11.2639 12.3931 11.3964 12.2851C11.5014 12.1992 11.4631 12.0765 11.4744 11.9671C11.5066 11.6653 11.5165 11.3598 11.5756 11.063C11.6627 10.6283 11.9229 10.3523 12.4097 10.3403H12.4678C14.0881 10.3703 14.4609 10.0482 14.5768 12.0848C14.6274 12.9616 14.5597 13.8302 14.4774 14.6955C14.4173 15.3315 13.9476 15.4902 12.5904 15.4418C11.939 15.4187 11.6324 15.1649 11.5648 14.5968C11.4153 13.287 11.4153 13.2912 10.05 13.4181C9.87877 13.4342 9.75293 13.4601 9.69049 13.6359C9.50647 14.1546 9.05469 14.3328 8.56271 14.414C7.81292 14.5443 7.04457 14.5343 6.29862 14.3845C5.95518 14.3129 5.63917 14.1717 5.40973 13.8847C5.28958 13.7342 5.36243 13.431 5.06582 13.4268C4.57903 13.4199 4.09083 13.4153 3.60594 13.4522C3.44888 13.4638 3.50234 13.6691 3.49241 13.7956C3.3661 15.4007 3.29135 15.4672 1.63563 15.4404C0.82622 15.4275 0.517309 15.1469 0.469056 14.3494C0.448715 14.0093 0.465745 13.6668 0.465745 13.3253Z" fill="black"/>
<path d="M8.87096 10.7736C8.05965 10.559 7.27673 10.5124 6.48766 10.6966C6.20099 10.7635 6.06474 10.7478 6.15321 10.3781C6.30128 9.7611 6.23221 9.08176 6.81218 8.61102C6.88598 8.55103 6.86706 8.36596 6.86753 8.23859C6.87069 6.81222 6.87069 5.38556 6.86753 3.95858C6.86753 3.38954 6.56619 3.11218 5.98007 3.1071C5.78516 3.1071 5.58979 3.1071 5.39489 3.1071C4.52634 3.1071 4.52681 3.1071 4.42179 3.94058C4.41233 4.01581 4.42179 4.10488 4.383 4.16303C3.9861 4.75745 3.36544 4.49116 2.83135 4.51931C2.42925 4.54054 2.22441 4.25256 2.21637 3.89812C2.19224 3.00465 2.20549 2.11025 2.20833 1.21631C2.21219 1.14115 2.23066 1.06738 2.26273 0.99894C2.44628 0.571585 2.98179 0.460823 3.89196 0.621427C4.3461 0.701268 4.47761 0.997555 4.42085 1.36353C4.32623 1.96349 4.61007 2.04979 5.13517 2.00964C5.82206 1.9598 6.5222 2.09779 7.15279 1.65612C7.43663 1.45768 7.79947 1.55275 8.08567 1.75119C8.84825 2.27962 9.70118 1.89795 10.5068 1.98195C10.7509 2.00687 10.6487 1.71612 10.6535 1.56659C10.6634 1.20016 10.6227 0.771417 11.0683 0.659733C11.5887 0.529588 12.1521 0.47513 12.6588 0.740035C12.8532 0.842489 12.8806 1.08478 12.8811 1.29938C12.8811 2.13655 12.8811 2.97326 12.8844 3.81044C12.8844 4.27933 12.6304 4.50639 12.1668 4.529C11.9525 4.53961 11.7377 4.53454 11.523 4.529C10.8886 4.51792 10.6289 4.32086 10.6752 3.72044C10.7183 3.1574 10.486 3.04618 9.98881 3.09649C9.66097 3.12971 9.32652 3.10156 8.99537 3.10295C8.34065 3.10618 7.96693 3.46431 7.96599 4.09472C7.96599 5.42617 7.96599 6.75761 7.96362 8.08952C7.96362 8.34058 7.93571 8.57779 8.2626 8.68625C8.46081 8.75178 8.51143 8.9733 8.57671 9.14545C8.76925 9.66649 8.83501 10.2074 8.87096 10.7736Z" fill="black"/>
</svg>
